<svg width="310" height="310" viewBox="0 0 310 310" fill="none" xmlns="http://www.w3.org/2000/svg">
<path opacity="0.75" fill-rule="evenodd" clip-rule="evenodd" d="M0 24.0642V9.62567C0 4.33155 4.33155 0 9.62567 0H24.0642C26.7112 0 28.877 2.16578 28.877 4.81283C28.877 7.45989 26.7112 9.62567 24.0642 9.62567H14.4385C11.7914 9.62567 9.62567 11.7914 9.62567 14.4385V24.0642C9.62567 26.7112 7.45989 28.877 4.81283 28.877C2.16578 28.877 0 26.7112 0 24.0642ZM0 285.69C0 283.043 2.16578 280.877 4.81283 280.877C7.45989 280.877 9.62567 283.043 9.62567 285.69V295.315C9.62567 297.963 11.7914 300.128 14.4385 300.128H24.0642C26.7112 300.128 28.877 302.294 28.877 304.941C28.877 307.588 26.7112 309.754 24.0642 309.754H9.62567C4.33155 309.754 0 305.422 0 300.128V285.69ZM300.128 295.315C300.128 297.963 297.963 300.128 295.315 300.128H285.69C283.043 300.128 280.877 302.294 280.877 304.941C280.877 307.588 283.043 309.754 285.69 309.754H300.128C305.422 309.754 309.754 305.422 309.754 300.128V285.69C309.754 283.043 307.588 280.877 304.941 280.877C302.294 280.877 300.128 283.043 300.128 285.69V295.315ZM285.69 0H300.128C305.422 0 309.754 4.33155 309.754 9.62567V24.0642C309.754 26.7112 307.588 28.877 304.941 28.877C302.294 28.877 300.128 26.7112 300.128 24.0642V14.4385C300.128 11.7914 297.963 9.62567 295.315 9.62567H285.69C283.043 9.62567 280.877 7.45989 280.877 4.81283C280.877 2.16577 283.043 0 285.69 0Z" fill="#F7F7F7"/>
</svg>
